<?xml version="1.0" encoding="utf-8"?>
<!-- Generator: Adobe Illustrator 19.1.0, SVG Export Plug-In . SVG Version: 6.00 Build 0)  -->
<svg version="1.1" id="Layer_1" xmlns:sketch="http://www.bohemiancoding.com/sketch/ns"
	 xmlns="http://www.w3.org/2000/svg" xmlns:xlink="http://www.w3.org/1999/xlink" x="0px" y="0px" viewBox="-97 36 65 69"
	 style="enable-background:new -97 36 65 69;" xml:space="preserve">
<style type="text/css">
	.st0{fill:#FFFDF3;}
</style>
<title>Slice 1</title>
<desc>Created with Sketch.</desc>
<g>
	<path class="st0" d="M-39.6,57c-0.1,0.5-0.2,1.7-0.2,3.6v17.7c0,1.9,0.1,3.1,0.2,3.6s0.5,0.9,1,1.3c0.5,0.3,1.3,0.5,2.4,0.5
		c2-4.1,3.1-8.7,3.1-13.5c0-5.4-1.4-10.4-3.8-14.8c-0.8,0.1-1.4,0.2-1.8,0.5C-39.1,56.1-39.4,56.5-39.6,57z"/>
	<path class="st0" d="M-42.1,84.8c-1.9,0-3.9,0.1-6.1,0.2v-1.3c1.1,0,2-0.2,2.5-0.5c0.5-0.3,0.9-0.7,1-1.3c0.1-0.5,0.2-1.7,0.2-3.6
		V70h-13.2v8.3c0,1.9,0.1,3.1,0.2,3.6s0.5,0.9,1,1.3c0.5,0.3,1.3,0.5,2.4,0.5V85c-2.3-0.1-4.3-0.2-6.1-0.2c-1.9,0-3.9,0.1-6.1,0.2
		v-1.3c1.1,0,2-0.2,2.5-0.5c0.5-0.3,0.9-0.7,1-1.3c0.1-0.5,0.2-1.7,0.2-3.6V60.6c0-1.9-0.1-3.1-0.2-3.6c-0.1-0.5-0.5-0.9-1-1.3
		c-0.5-0.3-1.4-0.5-2.5-0.5v-1.3c2.2,0.1,4.2,0.2,6,0.2c1.8,0,3.9-0.1,6.1-0.2v1.3c-1.1,0-2,0.2-2.4,0.5c-0.6,0.3-0.9,0.8-1,1.3
		s-0.2,1.7-0.2,3.6v7.6h13.2v-7.6c0-1.9-0.1-3.1-0.2-3.6c-0.1-0.5-0.5-0.9-1-1.3c-0.5-0.3-1.4-0.5-2.5-0.5v-1.3
		c2.2,0.1,4.2,0.2,6.1,0.2c1.4,0,3,0,4.7-0.1c-5.5-9-15.3-15-26.6-15c-11.2,0-21.1,6-26.6,14.9h0.3c0.6,0,1.2,0,1.7,0h6.9
		c0.1,0,0.3,0,0.4,0c3.3-0.1,5.8,0.5,7.6,1.7c1.7,1.3,2.6,3.1,2.6,5.6c0,3.7-2.1,6-6.3,7.1c1.8,0.3,3.2,0.7,4.2,1.2
		c1.3,0.6,2.4,1.6,3.2,2.9c0.8,1.3,1.2,2.8,1.2,4.4c0,2.6-0.9,4.7-2.8,6.1c-1.9,1.4-4.5,2.1-7.9,2.1c-0.2,0-0.4,0-0.7,0h-9.3
		c-0.3,0-0.5,0-0.7,0h-1c5.3,9.7,15.5,16.2,27.3,16.2c11.8,0,22.1-6.6,27.3-16.3C-38.7,84.9-40.5,84.8-42.1,84.8z"/>
	<path class="st0" d="M-92.1,83.7c1.1,0,2-0.2,2.5-0.5c0.5-0.3,0.9-0.7,1-1.3c0.1-0.5,0.2-1.7,0.2-3.6V60.6c0-1.9-0.1-3.1-0.2-3.6
		c-0.1-0.5-0.5-0.9-1-1.3c-0.4-0.3-1-0.4-1.9-0.5c-2.4,4.4-3.8,9.5-3.8,14.8C-95.2,75-94.1,79.6-92.1,83.7L-92.1,83.7z"/>
	<path class="st0" d="M-83.7,78.3c0,1.9,0.3,3.3,0.9,4.1c0.6,0.8,1.6,1.2,3,1.2c3.4,0,5-2.3,5-7c0-4.9-2.3-7.3-7-7.3
		c-0.5,0-1.2,0.1-2,0.2V78.3z"/>
	<path class="st0" d="M-76.4,61.5c0-2.2-0.4-3.8-1.3-4.8c-0.9-1-2.3-1.5-4.3-1.5c-0.6,0-1.1,0.1-1.3,0.2c-0.2,0.2-0.3,0.6-0.3,1.3
		v11.1c0.7,0.1,1,0.1,1.1,0.1c2.2,0,3.7-0.5,4.7-1.5C-76.9,65.4-76.4,63.8-76.4,61.5z"/>
</g>
</svg>
